<svg width="195" height="50" viewBox="0 0 195 50" fill="none" xmlns="http://www.w3.org/2000/svg">
<path d="M0 0H195V30C195 41.0457 186.046 50 175 50H20C8.9543 50 0 41.0457 0 30V0Z" fill="#FFBCA2"/>
<path d="M59.5064 16.9404H64.608C65.8934 16.9404 66.9713 17.3756 67.8417 18.246C68.7121 19.1163 69.1472 20.1875 69.1472 21.4596C69.1472 22.7316 68.7121 23.8028 67.8417 24.6732C66.9713 25.5435 65.8934 25.9787 64.608 25.9787H61.3743V31H59.5064V16.9404ZM61.3743 24.2313H64.608C65.398 24.2313 66.0407 23.9702 66.5362 23.448C67.045 22.899 67.2994 22.2362 67.2994 21.4596C67.2994 20.6562 67.045 19.9934 66.5362 19.4711C66.0273 18.9489 65.3846 18.6878 64.608 18.6878H61.3743V24.2313ZM72.2924 31H70.545V16.3379H72.2924V31ZM82.6458 22.6848V20.9574H84.3932V31H82.6458V29.2727C81.7889 30.5983 80.5235 31.2611 78.8498 31.2611C77.4304 31.2611 76.232 30.7523 75.2545 29.7346C74.2637 28.7036 73.7682 27.4516 73.7682 25.9787C73.7682 24.5192 74.2637 23.2739 75.2545 22.2429C76.2454 21.2119 77.4438 20.6963 78.8498 20.6963C80.5235 20.6963 81.7889 21.3591 82.6458 22.6848ZM79.0707 29.574C80.0883 29.574 80.9386 29.2325 81.6215 28.5496C82.3044 27.8399 82.6458 26.983 82.6458 25.9787C82.6458 24.9611 82.3044 24.1108 81.6215 23.4279C80.9386 22.7316 80.0883 22.3835 79.0707 22.3835C78.0664 22.3835 77.2229 22.7316 76.54 23.4279C75.8571 24.1108 75.5156 24.9611 75.5156 25.9787C75.5156 26.983 75.8571 27.8399 76.54 28.5496C77.2229 29.2325 78.0664 29.574 79.0707 29.574ZM90.5305 28.8308L93.4228 20.9574H95.2907L91.1933 31.6226C90.7514 32.7608 90.1422 33.6245 89.3656 34.2136C88.6023 34.8162 87.7253 35.084 86.7344 35.017V33.3901C87.9663 33.4839 88.8701 32.801 89.4459 31.3414L89.6267 30.9598L85.2481 20.9574H87.116L90.5305 28.8308ZM108.831 22.6848V20.9574H110.578V31H108.831V29.2727C107.974 30.5983 106.709 31.2611 105.035 31.2611C103.616 31.2611 102.417 30.7523 101.44 29.7346C100.449 28.7036 99.9534 27.4516 99.9534 25.9787C99.9534 24.5192 100.449 23.2739 101.44 22.2429C102.431 21.2119 103.629 20.6963 105.035 20.6963C106.709 20.6963 107.974 21.3591 108.831 22.6848ZM105.256 29.574C106.274 29.574 107.124 29.2325 107.807 28.5496C108.49 27.8399 108.831 26.983 108.831 25.9787C108.831 24.9611 108.49 24.1108 107.807 23.4279C107.124 22.7316 106.274 22.3835 105.256 22.3835C104.252 22.3835 103.408 22.7316 102.725 23.4279C102.042 24.1108 101.701 24.9611 101.701 25.9787C101.701 26.983 102.042 27.8399 102.725 28.5496C103.408 29.2325 104.252 29.574 105.256 29.574ZM120.934 22.6848V20.9574H122.661V30.5782C122.661 32.0645 122.159 33.2161 121.154 34.0329C120.137 34.863 118.932 35.2781 117.539 35.2781C116.414 35.2781 115.444 35.0639 114.627 34.6354C113.81 34.2203 113.194 33.6178 112.779 32.8277L114.305 31.9641C114.854 33.0889 115.946 33.6512 117.579 33.6512C118.624 33.6512 119.441 33.3767 120.03 32.8277C120.632 32.2788 120.934 31.5289 120.934 30.5782V29.1522C120.05 30.4912 118.791 31.1607 117.158 31.1607C115.711 31.1607 114.5 30.6519 113.522 29.6342C112.531 28.6032 112.036 27.3646 112.036 25.9185C112.036 24.4723 112.531 23.2405 113.522 22.2228C114.5 21.2052 115.711 20.6963 117.158 20.6963C118.805 20.6963 120.063 21.3591 120.934 22.6848ZM120.934 25.9185C120.934 24.9142 120.592 24.0706 119.909 23.3877C119.226 22.7049 118.376 22.3634 117.358 22.3634C116.341 22.3634 115.49 22.7049 114.808 23.3877C114.125 24.0706 113.783 24.9142 113.783 25.9185C113.783 26.9361 114.125 27.7864 114.808 28.4693C115.49 29.1522 116.341 29.4936 117.358 29.4936C118.376 29.4936 119.226 29.1522 119.909 28.4693C120.592 27.7864 120.934 26.9361 120.934 25.9185ZM132.996 22.6848V20.9574H134.743V31H132.996V29.2727C132.139 30.5983 130.874 31.2611 129.2 31.2611C127.78 31.2611 126.582 30.7523 125.605 29.7346C124.614 28.7036 124.118 27.4516 124.118 25.9787C124.118 24.5192 124.614 23.2739 125.605 22.2429C126.595 21.2119 127.794 20.6963 129.2 20.6963C130.874 20.6963 132.139 21.3591 132.996 22.6848ZM129.421 29.574C130.438 29.574 131.289 29.2325 131.972 28.5496C132.654 27.8399 132.996 26.983 132.996 25.9787C132.996 24.9611 132.654 24.1108 131.972 23.4279C131.289 22.7316 130.438 22.3835 129.421 22.3835C128.416 22.3835 127.573 22.7316 126.89 23.4279C126.207 24.1108 125.866 24.9611 125.866 25.9787C125.866 26.983 126.207 27.8399 126.89 28.5496C127.573 29.2325 128.416 29.574 129.421 29.574ZM137.647 19.1297C137.312 19.1297 137.031 19.0159 136.803 18.7883C136.576 18.5606 136.462 18.2861 136.462 17.9648C136.462 17.6434 136.576 17.3689 136.803 17.1413C137.031 16.9003 137.312 16.7797 137.647 16.7797C137.968 16.7797 138.243 16.9003 138.47 17.1413C138.698 17.3689 138.812 17.6434 138.812 17.9648C138.812 18.2861 138.698 18.5606 138.47 18.7883C138.243 19.0159 137.968 19.1297 137.647 19.1297ZM138.511 31H136.763V20.9574H138.511V31ZM145.55 20.6963C146.728 20.6963 147.672 21.0713 148.382 21.8211C149.092 22.5576 149.446 23.5618 149.446 24.8339V31H147.699V24.9343C147.699 24.1309 147.478 23.5016 147.036 23.0463C146.594 22.591 145.985 22.3634 145.208 22.3634C144.311 22.3634 143.602 22.6446 143.079 23.207C142.557 23.756 142.296 24.5795 142.296 25.6774V31H140.549V20.9574H142.296V22.4036C142.992 21.2654 144.077 20.6963 145.55 20.6963Z" fill="#010101"/>
<path fill-rule="evenodd" clip-rule="evenodd" d="M21.4533 25C21.4533 19.708 25.5787 14.4533 32 14.4533C37.1856 14.4533 39.7504 18.2912 40.8424 20.3333H37.6C37.3525 20.3333 37.1151 20.4316 36.94 20.6067C36.765 20.7817 36.6667 21.0191 36.6667 21.2666C36.6667 21.5142 36.765 21.7516 36.94 21.9266C37.1151 22.1016 37.3525 22.2 37.6 22.2H43.2C43.4475 22.2 43.6849 22.1016 43.86 21.9266C44.035 21.7516 44.1333 21.5142 44.1333 21.2666V15.6666C44.1333 15.4191 44.035 15.1817 43.86 15.0067C43.6849 14.8316 43.4475 14.7333 43.2 14.7333C42.9525 14.7333 42.7151 14.8316 42.54 15.0067C42.365 15.1817 42.2667 15.4191 42.2667 15.6666V19.0509C40.9525 16.7325 37.9099 12.5866 32 12.5866C24.4157 12.5866 19.5867 18.812 19.5867 25C19.5867 31.188 24.4157 37.4133 32 37.4133C35.6288 37.4133 38.6491 35.976 40.7995 33.7882C41.9405 32.6244 42.8457 31.2508 43.4651 29.7432C43.5116 29.6298 43.5354 29.5084 43.5351 29.3858C43.5347 29.2632 43.5102 29.1419 43.463 29.0288C43.4158 28.9157 43.3467 28.813 43.2598 28.7266C43.1729 28.6402 43.0698 28.5717 42.9564 28.5252C42.843 28.4786 42.7216 28.4548 42.599 28.4552C42.4765 28.4555 42.3552 28.48 42.2421 28.5272C42.129 28.5745 42.0263 28.6435 41.9398 28.7305C41.8534 28.8174 41.785 28.9205 41.7384 29.0338C41.2109 30.318 40.4402 31.4881 39.4685 32.4797C37.656 34.3277 35.108 35.5466 32 35.5466C25.5787 35.5466 21.4533 30.292 21.4533 25Z" fill="black"/>
</svg>
